<svg width="25" height="25" viewBox="0 0 25 25" fill="none" xmlns="http://www.w3.org/2000/svg">
<g clip-path="url(#clip0_14_46)">
<path d="M22.9411 11.2702V4.26763C22.9411 3.64857 22.6952 3.05486 22.2575 2.61711C21.8197 2.17936 21.226 1.93344 20.6069 1.93344H4.2676C3.64854 1.93344 3.05482 2.17936 2.61708 2.61711C2.17933 3.05486 1.93341 3.64857 1.93341 4.26763V20.607C1.93341 21.226 2.17933 21.8197 2.61708 22.2575C3.05482 22.6952 3.64854 22.9412 4.2676 22.9412H11.2702" fill="url(#paint0_linear_14_46)"/>
<path d="M22.9411 11.2702V4.26763C22.9411 3.64857 22.6952 3.05486 22.2575 2.61711C21.8197 2.17936 21.226 1.93344 20.6069 1.93344H4.2676C3.64854 1.93344 3.05482 2.17936 2.61708 2.61711C2.17933 3.05486 1.93341 3.64857 1.93341 4.26763V20.607C1.93341 21.226 2.17933 21.8197 2.61708 22.2575C3.05482 22.6952 3.64854 22.9412 4.2676 22.9412H11.2702" stroke="#FDE5D5" stroke-width="2.5" stroke-linecap="round" stroke-linejoin="round"/>
<path d="M12.5353 13.2094C12.4978 13.1152 12.4887 13.012 12.5091 12.9127C12.5296 12.8134 12.5787 12.7222 12.6504 12.6505C12.7221 12.5788 12.8133 12.5297 12.9126 12.5092C13.0119 12.4888 13.1151 12.4979 13.2093 12.5354L22.5843 16.1813C22.6848 16.2205 22.7706 16.2901 22.8299 16.3802C22.8892 16.4704 22.919 16.5768 22.9153 16.6846C22.9115 16.7924 22.8743 16.8965 22.8089 16.9823C22.7434 17.0681 22.6529 17.1314 22.5499 17.1636L18.9624 18.2761C18.8006 18.3261 18.6533 18.4149 18.5335 18.5347C18.4137 18.6545 18.325 18.8017 18.2749 18.9636L17.1635 22.55C17.1313 22.653 17.068 22.7435 16.9822 22.809C16.8964 22.8744 16.7924 22.9116 16.6845 22.9154C16.5767 22.9191 16.4703 22.8893 16.3801 22.83C16.29 22.7707 16.2205 22.6849 16.1812 22.5844L12.5353 13.2094Z" fill="#FDE5D5" stroke="#FDE5D5" stroke-width="2.5" stroke-linecap="round" stroke-linejoin="round"/>
</g>
<defs>
<linearGradient id="paint0_linear_14_46" x1="2.2321" y1="2.23213" x2="16.9642" y2="16.9643" gradientUnits="userSpaceOnUse">
<stop stop-color="#FDE5D5" stop-opacity="0.6"/>
<stop offset="0.315213" stop-color="#C5A5A1" stop-opacity="0.4"/>
<stop offset="1" stop-color="#998380" stop-opacity="0"/>
</linearGradient>
<clipPath id="clip0_14_46">
<rect width="25" height="25" fill="white"/>
</clipPath>
</defs>
</svg>
